<svg xmlns="http://www.w3.org/2000/svg" viewBox="0 0 23 14">
  <path d="M20.577 0H2.401l-.189.003a2.746 2.746 0 0 0-.411.036A1.312 1.312 0 0 0 .707 1.134a2.728 2.728 0 0 0-.037.411 9.288 9.288 0 0 0-.003.19v10.531l.003.189c.004.137.012.275.036.41.025.139.066.267.13.392a1.308 1.308 0 0 0 .574.575c.125.063.253.104.39.129.136.024.275.032.412.036a10.805 10.805 0 0 0 .413.003H20.801l.19-.003c.136-.004.275-.012.41-.036.138-.025.266-.066.391-.13a1.306 1.306 0 0 0 .575-.574c.064-.125.104-.253.129-.391.024-.136.032-.274.036-.411a8.5 8.5 0 0 0 .003-.189V1.734l-.003-.189a2.727 2.727 0 0 0-.036-.41A1.319 1.319 0 0 0 21.402.04a2.753 2.753 0 0 0-.412-.037A9.435 9.435 0 0 0 20.801 0h-.224Z" fill="#000" stroke="none" />
  <path d="M20.577.467h.221l.18.003c.104.003.227.008.341.029a.846.846 0 0 1 .718.718c.02.113.026.236.029.34l.003.18V12.265c0 .06-.002.119-.003.178a2.316 2.316 0 0 1-.03.342.846.846 0 0 1-.717.717c-.115.02-.243.027-.339.03l-.182.002H2.403c-.06 0-.12-.001-.178-.003a2.387 2.387 0 0 1-.341-.029.915.915 0 0 1-.263-.086.837.837 0 0 1-.37-.37.916.916 0 0 1-.085-.262 2.308 2.308 0 0 1-.03-.34 8.708 8.708 0 0 1-.002-.18V1.737l.003-.18a2.31 2.31 0 0 1 .029-.34.842.842 0 0 1 .456-.632.92.92 0 0 1 .262-.086 2.33 2.33 0 0 1 .341-.03l.179-.002H20.577Z" fill="#fff" stroke="none" />
  <path d="M6.637 4.71c.187-.235.314-.55.28-.87a1.21 1.21 0 0 0-.802.414c-.174.201-.327.529-.287.837.307.026.615-.154.809-.382ZM6.914 5.15c-.447-.026-.827.254-1.04.254-.214 0-.54-.24-.894-.233-.46.006-.887.266-1.12.68-.48.828-.127 2.055.34 2.73.227.333.5.7.86.687.34-.014.474-.22.887-.22.413 0 .534.22.894.213.373-.007.607-.334.833-.667.26-.38.367-.748.374-.768-.007-.006-.72-.28-.727-1.1-.007-.688.56-1.015.587-1.035-.32-.473-.82-.527-.994-.54ZM10.8 4.22c.971 0 1.647.67 1.647 1.645 0 .978-.69 1.65-1.671 1.65H9.7v1.711h-.777V4.221H10.8ZM9.7 6.865h.892c.676 0 1.061-.364 1.061-.996 0-.63-.385-.992-1.058-.992H9.7v1.988ZM12.65 8.189c0-.638.49-1.03 1.357-1.079l.999-.059v-.28c0-.407-.274-.65-.732-.65-.434 0-.704.209-.77.535h-.708c.042-.66.604-1.145 1.506-1.145.884 0 1.45.468 1.45 1.2v2.515h-.719v-.6h-.017c-.211.406-.673.662-1.152.662-.714 0-1.214-.444-1.214-1.1Zm2.356-.33v-.288l-.899.056c-.447.031-.7.229-.7.541 0 .32.263.527.665.527.524 0 .934-.36.934-.836ZM16.43 10.568v-.607c.055.014.18.014.242.014.347 0 .534-.146.648-.52 0-.007.066-.222.066-.226l-1.318-3.652h.812l.923 2.97h.014l.922-2.97h.791l-1.367 3.84c-.312.884-.672 1.169-1.429 1.169a2.89 2.89 0 0 1-.305-.018Z" fill="#000" stroke="none" />
</svg>
