<?xml version="1.0" encoding="utf-8"?>
<!-- Generator: Adobe Illustrator 26.0.3, SVG Export Plug-In . SVG Version: 6.00 Build 0)  -->
<svg version="1.1" id="Layer_1" xmlns="http://www.w3.org/2000/svg" xmlns:xlink="http://www.w3.org/1999/xlink" x="0px" y="0px"
	 width="32px" height="32px" viewBox="0 0 32 32" enable-background="new 0 0 32 32" xml:space="preserve">
<g>
	<path fill="#F0B90B" d="M16,0L7.5,4.9l3.12,1.81L16,3.62l5.37,3.09L24.5,4.9L16,0z"/>
	<path fill="#F0B90B" d="M21.37,9.27l3.12,1.81v3.62l-5.37,3.09v6.18L16,25.79l-3.12-1.81V17.8L7.5,14.7v-3.62l3.12-1.81L16,12.36
		L21.37,9.27z"/>
	<path fill="#F0B90B" d="M24.5,17.26v3.62l-3.12,1.81v-3.62L24.5,17.26z"/>
	<path fill="#F0B90B" d="M21.34,25.26l5.37-3.09v-6.18l3.12-1.81v9.8l-8.5,4.9V25.26z"/>
	<path fill="#F0B90B" d="M26.72,9.8l-3.12-1.81l3.12-1.81l3.12,1.81v3.62l-3.12,1.81V9.8z"/>
	<path fill="#F0B90B" d="M12.88,30.19v-3.62L16,28.38l3.12-1.81v3.62L16,32L12.88,30.19z"/>
	<path fill="#F0B90B" d="M10.63,22.7L7.5,20.89v-3.62l3.12,1.81V22.7z"/>
	<path fill="#F0B90B" d="M16,9.8l-3.12-1.81L16,6.18l3.12,1.81L16,9.8z"/>
	<path fill="#F0B90B" d="M8.41,7.99L5.28,9.8v3.62l-3.12-1.81V7.99l3.12-1.81L8.41,7.99z"/>
	<path fill="#F0B90B" d="M2.16,14.17l3.12,1.81v6.18l5.37,3.09v3.62l-8.5-4.9V14.17z"/>
</g>
</svg>
