<svg xmlns="http://www.w3.org/2000/svg" viewBox="0 0 27 14">
  <path d="M19.32 0H7C3.15 0 0 3.15 0 7s3.15 7 7 7h12.32c3.85 0 7-3.15 7-7s-3.15-7-7-7Z" fill="#fff" stroke="none" />
  <path d="M19.32.567a6.35 6.35 0 0 1 2.496.508 6.49 6.49 0 0 1 3.43 3.43A6.35 6.35 0 0 1 25.754 7a6.35 6.35 0 0 1-.508 2.495 6.49 6.49 0 0 1-3.43 3.43 6.35 6.35 0 0 1-2.495.508H7a6.35 6.35 0 0 1-2.496-.508 6.49 6.49 0 0 1-3.43-3.43A6.35 6.35 0 0 1 .567 7c0-.864.172-1.705.508-2.495a6.49 6.49 0 0 1 3.43-3.43A6.35 6.35 0 0 1 7.001.567h12.32Zm0-.567H7C3.15 0 0 3.15 0 7s3.15 7 7 7h12.32c3.85 0 7-3.15 7-7s-3.15-7-7-7Z" fill="#3C4043" stroke="none" />
  <path d="M12.557 7.496v2.117h-.672V4.384h1.781c.452 0 .837.15 1.152.452.322.3.483.668.483 1.102 0 .445-.161.812-.483 1.11-.312.297-.697.444-1.152.444h-1.11v.004Zm0-2.468v1.824h1.123c.266 0 .49-.091.665-.27a.881.881 0 0 0 .27-.64.872.872 0 0 0-.27-.634.872.872 0 0 0-.665-.276h-1.123v-.004ZM17.058 5.917c.497 0 .889.133 1.176.399.287.266.43.63.43 1.092v2.205h-.64v-.497h-.028c-.277.41-.648.612-1.11.612-.395 0-.724-.115-.99-.35a1.118 1.118 0 0 1-.4-.875c0-.37.14-.665.42-.882.28-.22.655-.329 1.12-.329.4 0 .729.074.984.221v-.154a.763.763 0 0 0-.276-.595.949.949 0 0 0-.651-.245c-.375 0-.672.157-.89.476l-.59-.371c.325-.473.808-.707 1.445-.707Zm-.868 2.597a.53.53 0 0 0 .224.437.823.823 0 0 0 .521.175c.284 0 .536-.105.756-.315a.989.989 0 0 0 .333-.738c-.21-.165-.5-.249-.875-.249-.273 0-.5.067-.683.196-.185.137-.276.301-.276.494ZM22.318 6.032l-2.24 5.152h-.693l.833-1.802-1.477-3.35h.732l1.064 2.57h.014l1.036-2.57h.731Z" fill="#3C4043" stroke="none" />
  <path d="M9.884 7.068c0-.219-.02-.428-.056-.63H7.01v1.155h1.622a1.39 1.39 0 0 1-.602.93v.75h.966c.563-.522.887-1.293.887-2.205Z" fill="#4285F4" stroke="none" />
  <path d="M8.032 8.524a1.804 1.804 0 0 1-1.02.287c-.783 0-1.446-.527-1.684-1.238h-.996v.773a2.999 2.999 0 0 0 2.68 1.652c.81 0 1.49-.267 1.985-.725l-.965-.75Z" fill="#34A853" stroke="none" />
  <path d="M5.234 7c0-.2.034-.392.094-.573v-.773h-.996A2.983 2.983 0 0 0 4.013 7c0 .485.115.942.319 1.347l.996-.773A1.808 1.808 0 0 1 5.234 7Z" fill="#FABB05" stroke="none" />
  <path d="M7.012 5.189c.442 0 .838.152 1.15.45l.856-.855a2.88 2.88 0 0 0-2.006-.782 2.999 2.999 0 0 0-2.68 1.652l.996.773c.238-.711.901-1.238 1.684-1.238Z" fill="#E94235" stroke="none" />
</svg>
